# AST/ASF file generated using VICON BodyLanguage
# -----------------------------------------------
:version 1.10
:name VICON
:units
  mass 1.0
  length 0.45
  angle deg
:documentation
   .ast/.asf automatically generated from VICON data using
   VICON BodyBuilder and BodyLanguage model FoxedUp or BRILLIANT.MOD
:root
   order TX TY TZ RX RY RZ
   axis XYZ
   position 0 0 0  
   orientation 0 0 0 
:bonedata
  begin
     id 1 
     name lhipjoint
     direction 0.710087 -0.641647 0.289942 
     length 2.79038 
     axis 0 0 0  XYZ
  end
  begin
     id 2 
     name lfemur
     direction 0.34202 -0.939693 0  
     length 7.2706  
     axis 0 0 20  XYZ
    dof rx ry rz
    limits (-160.0 20.0)
           (-70.0 70.0)
           (-60.0 70.0)
  end
  begin
     id 3 
     name ltibia
     direction 0.34202 -0.939693 0   
     length 7.86328   
     axis 0 0 20   XYZ
    dof rx
    limits (-10.0 170.0)
  end
  begin
     id 4 
     name lfoot
     direction 0.0541246 -0.148706 0.987399   
     length 2.37542   
     axis -90 7.62852e-016 20   XYZ
    dof rx rz
    limits (-45.0 90.0)
           (-70.0 20.0)
  end
  begin
     id 5 
     name ltoes
     direction 1.53554e-011 -4.21866e-011 1   
     length 1.19593   
     axis -90 7.62852e-016 20   XYZ
    dof rx
    limits (-90.0 20.0)
  end
  begin
     id 6 
     name rhipjoint
     direction -0.675762 -0.671724 0.303533   
     length 2.66544  
     axis 0 0 0  XYZ 
  end
  begin
     id 7 
     name rfemur
     direction -0.34202 -0.939693 0   
     length 8.11844   
     axis 0 0 -20   XYZ
    dof rx ry rz
    limits (-160.0 20.0)
           (-70.0 70.0)
           (-70.0 60.0)
  end
  begin
     id 8 
     name rtibia
     direction -0.34202 -0.939693 0   
     length 7.97082   
     axis 0 0 -20   XYZ
    dof rx
    limits (-10.0 170.0)
 end
 begin
     id 9 
     name rfoot
     direction -0.0726228 -0.199474 0.977208   
     length 2.19677  
     axis -90 -7.62852e-016 -20   XYZ
    dof rx rz
    limits (-45.0 90.0)
           (-20.0 70.0)
  end
  begin
     id 10 
     name rtoes
     direction -1.53508e-011 -4.21913e-011 1   
     length 1.10438   
     axis -90 -7.62852e-016 -20   XYZ
    dof rx
    limits (-90.0 20.0)
  end
  begin
     id 11 
     name lowerback
     direction -0.00404436 0.999673 -0.0252643   
     length 2.03972   
     axis 0 0 0   XYZ
    dof rx ry rz
    limits (-20.0 45.0)
           (-30.0 30.0)
           (-30.0 30.0)
  end
  begin
     id 12 
     name upperback
     direction 0.00744643 0.999969 0.00242763   
     length 2.04273   
     axis 0 0 0   XYZ
    dof rx ry rz
    limits (-20.0 45.0)
           (-30.0 30.0)
           (-30.0 30.0)
  end
  begin
     id 13 
     name thorax
     direction 0.00846113 0.999862 0.0143204   
     length 2.03752   
     axis 0 0 0   XYZ
    dof rx ry rz
    limits (-20.0 45.0)
           (-30.0 30.0)
           (-30.0 30.0)
  end
  begin
     id 14 
     name lowerneck
     direction 0.0328213 0.990857 0.130862   
     length 1.37497   
     axis 0 0 0   XYZ
    dof rx ry rz
    limits (-20.0 45.0)
           (-30.0 30.0)
           (-30.0 30.0)
  end
  begin
     id 15 
     name upperneck
     direction -0.0302832 0.999496 0.00956452   
     length 1.35926   
     axis 0 0 0   XYZ
    dof rx ry rz
    limits (-20.0 45.0)
           (-30.0 30.0)
           (-30.0 30.0)
  end
  begin
     id 16
     name head
     direction -0.0130455 0.999856 -0.0108809  
     length 1.44454  
     axis 0 0 0   XYZ
    dof rx ry rz
    limits (-20.0 45.0)
           (-30.0 30.0)
           (-30.0 30.0)
  end
  begin
     id 17 
     name lclavicle
     direction 0.952957 0.278766 0.119006  
     length 3.10112  
     axis 0 0 0   XYZ
    dof ry rz
    limits (-20.0 10.0)
           (0.0 20.0)
  end
  begin
     id 18 
     name lhumerus
     direction 1 -4.48972e-011 -1.63238e-028   
     length 5.82845   
     axis -180 -30 -90   XYZ
    dof rx ry rz
    limits (-60.0 90.0)
           (-90.0 90.0)
           (-90.0 90.0)
  end
  begin
     id 19
     name lradius
     direction 1 -4.48959e-011 1.45401e-026   
     length 3.49691   
     axis -180 -30 -90   XYZ
    dof rx
    limits (-10.0 170.0)
  end
  begin
     id 20
     name lwrist
     direction 1 -4.48945e-011 2.98015e-026   
     length 1.74845   
     axis -1.7599e-014 90 90   XYZ
    dof ry
    limits (-180.0 0.0)
 end
  begin
     id 21 
     name lhand
     direction 1 -4.4902e-011 5.9603e-026   
     length 0.674998   
     axis -3.80318e-014 90 90   XYZ
    dof rx rz
    limits (-90.0 90.0)
           (-45.0 45.0)
  end
  begin
     id 22 
     name lfingers
     direction 1 -4.48979e-011 1.19206e-025   
     length 0.544201   
     axis -7.60636e-014 90 90   XYZ
    dof rx
    limits (0.0 90.0)
  end
  begin
     id 23
     name lthumb
     direction 0.707107 -6.34941e-011 0.707107   
     length 0.781367   
     axis -90 45 2.85299e-015   XYZ
    dof rx rz
    limits (-45.0 45.0)
           (-45.0 45.0)
  end
  begin
     id 24 
     name rclavicle
     direction -0.967632 0.241887 0.0719654   
     length 3.53012  
     axis 0 0 0   XYZ 
    dof ry rz
    limits (-10.0 20.0)
           (-20.0 0.0)
  end
  begin
     id 25 
     name rhumerus
     direction -1 -4.4897e-011 6.87619e-028  
     length 5.45859   
     axis -180 30 90   XYZ
    dof rx ry rz
    limits (-90.0 60.0)
           (-90.0 90.0)
           (-90.0 90.0)
  end
  begin
     id 26 
     name rradius
     direction -1 -4.48967e-011 1.68055e-026   
     length 3.58491   
     axis -180 30 90   XYZ
    dof rx
    limits (-10.0 170.0)
  end
  begin
     id 27 
     name rwrist
     direction -1 -4.48976e-011 2.98015e-026   
     length 1.79245   
     axis -1.7599e-014 -90 -90   XYZ
    dof ry
    limits (-180.0 0.0)
  end
  begin
     id 28
     name rhand
     direction -1 -4.48996e-011 5.9603e-026   
     length 0.683735   
     axis -3.80318e-014 -90 -90   XYZ
    dof rx rz
    limits (-90.0 90.0)
           (-45.0 45.0)
  end
  begin
     id 29
     name rfingers
     direction -1 -4.48924e-011 1.19206e-025   
     length 0.551245   
     axis -7.60636e-014 -90 -90   XYZ
    dof rx
    limits (0.0 90.0)
  end
  begin
     id 30
     name rthumb
     direction -0.707107 -6.3492e-011 0.707107   
     length 0.791481   
     axis -90 -45 -2.85299e-015   XYZ
    dof rx rz
    limits (-45.0 45.0)
           (-45.0 45.0)
  end
:hierarchy
  begin
    root lhipjoint rhipjoint lowerback
    lhipjoint lfemur
    lfemur ltibia
    ltibia lfoot
    lfoot ltoes
    rhipjoint rfemur
    rfemur rtibia
    rtibia rfoot
    rfoot rtoes
    lowerback upperback
    upperback thorax
    thorax lowerneck lclavicle rclavicle
    lowerneck upperneck
    upperneck head
    lclavicle lhumerus
    lhumerus lradius
    lradius lwrist
    lwrist lhand lthumb
    lhand lfingers
    rclavicle rhumerus
    rhumerus rradius
    rradius rwrist
    rwrist rhand rthumb
    rhand rfingers
  end

#!OML:ASF F:\VICON\USERDATA\INSTALL\rory3\rory3.ASF
:FULLY-SPECIFIED
:DEGREES
563
root 1.53295 17.7795 9.24005 -7.06179 -142.178 4.78545
lowerback 14.1956 3.20916 0.915546
upperback 0.00226549 4.27931 -0.813341
thorax -7.82826 1.9928 -2.25922
lowerneck 1.78246 21.4624 12.2253
upperneck 0.431978 28.8943 -6.52335
head 2.69113 14.4539 -2.78322
rclavicle 9.14409e-015 3.18055e-015
rhumerus -37.4224 11.6901 -78.804
rradius 70.8411
rwrist 0.953197
rhand -21.9101 63.8868
rfingers 7.12502
rthumb 4.49554 33.9545
lclavicle 9.14409e-015 3.18055e-015
lhumerus -26.3729 2.29451 72.4185
lradius 24.6808
lwrist 2.84542
lhand 181.059 65.6117
lfingers 7.12502
lthumb -153.396 -682.539
rfemur -4.16805 -4.71609 16.0922
rtibia 45.4907
rfoot -32.1171 -5.61796
rtoes 6.73296
lfemur -6.42567 -5.80281 -15.9167
ltibia 28.2323
lfoot -11.7453 8.08031
ltoes -12.8077
564
root 1.46328 17.7934 9.25683 -6.8747 -141.876 4.79041
lowerback 13.8988 3.32677 0.762536
upperback 0.0504671 4.4106 -0.802825
thorax -7.61675 2.06767 -2.1663
lowerneck 1.93085 21.4793 11.9821
upperneck 0.225452 28.9267 -6.57594
head 2.5686 14.4714 -2.80414
rclavicle -1.39149e-013 3.97569e-015
rhumerus -37.8127 11.7174 -78.6669
rradius 70.3156
rwrist 0.787446
rhand -22.0212 63.7537
rfingers 7.12502
rthumb 4.3883 33.8192
lclavicle -1.39149e-013 3.97569e-015
lhumerus -26.817 0.424137 73.1745
lradius 25.8049
lwrist 5.3584
lhand 179.944 65.4224
lfingers 7.12502
lthumb -154.463 -682.886
rfemur -4.53445 -5.15022 15.7082
rtibia 45.9021
rfoot -31.0669 -6.26547
rtoes 5.2477
lfemur -6.52236 -5.5456 -16.153
ltibia 28.021
lfoot -11.2909 8.05466
ltoes -16.6463
565
root 1.3977 17.8067 9.26733 -7.03697 -141.515 5.18517
lowerback 13.6857 3.38879 0.852562
upperback 0.0564519 4.51721 -0.706222
thorax -7.48758 2.12214 -2.1202
lowerneck 2.28738 21.3853 12.2141
upperneck 0.0434449 28.8512 -6.93522
head 2.54157 14.4402 -2.98911
rclavicle 5.48149e-014 -1.35174e-014
rhumerus -38.4225 11.9013 -78.7117
rradius 69.7928
rwrist 0.686634
rhand -21.9845 63.3872
rfingers 7.12502
rthumb 4.42371 33.4534
lclavicle 5.48149e-014 -1.35174e-014
lhumerus -27.2105 -0.798957 73.7873
lradius 26.7653
lwrist 6.44634
lhand 180.482 65.1896
lfingers 7.12502
lthumb -153.948 -683.044
rfemur -4.75354 -5.16001 15.8267
rtibia 46.2765
rfoot -30.6235 -6.776
rtoes 7.00559
lfemur -6.5622 -5.54421 -16.0875
ltibia 27.8691
lfoot -10.9155 8.35437
ltoes -20.5149
566
root 1.33513 17.8152 9.27972 -7.24416 -141.086 5.64065
lowerback 13.5369 3.48062 1.09172
upperback 0.0234901 4.68425 -0.652505
thorax -7.41855 2.19869 -2.22006
lowerneck 2.36341 21.2187 12.3437
upperneck 0.125436 28.6428 -6.99411
head 2.56988 14.3395 -3.04435
rclavicle 5.60076e-014 -2.54444e-014
rhumerus -39.0293 11.6608 -78.8663
rradius 68.9593
rwrist 0.808259
rhand -22.4742 63.3448
rfingers 7.12502
rthumb 3.9509 33.4017
lclavicle 5.60076e-014 -2.54444e-014
lhumerus -27.4319 -2.50326 74.6147
lradius 27.6942
lwrist 7.62344
lhand 180.033 65.1582
lfingers 7.12502
lthumb -154.378 -683.138
rfemur -5.01252 -5.31775 15.9597
rtibia 46.714
rfoot -29.8425 -7.7754
rtoes 6.79733
lfemur -6.57417 -5.621 -15.9242
ltibia 27.7243
lfoot -10.7942 8.14185
ltoes -21.0526
567
root 1.27568 17.829 9.29623 -7.27049 -140.63 5.76027
lowerback 13.3979 3.55532 1.0945
upperback 0.0719482 4.78366 -0.632017
thorax -7.28606 2.25045 -2.20633
lowerneck 2.40577 21.0584 11.9438
upperneck -0.149411 28.4145 -6.88757
head 2.36566 14.2244 -3.02483
rclavicle -4.64659e-014 -1.90833e-014
rhumerus -39.368 11.4641 -78.8391
rradius 67.9275
rwrist 1.02688
rhand -22.7378 63.6438
rfingers 7.12502
rthumb 3.69631 33.6961
lclavicle -4.64659e-014 -1.90833e-014
lhumerus -27.4288 -3.90854 75.3164
lradius 28.4824
lwrist 8.32562
lhand 179.835 64.9889
lfingers 7.12502
lthumb -154.567 -683.334
rfemur -5.26329 -5.42972 15.8317
rtibia 47.1482
rfoot -29.1811 -8.44365
rtoes 7.52906
lfemur -6.52498 -6.24927 -16.07
ltibia 27.6723
lfoot -11.1891 7.77416
ltoes -17.5082
568
root 1.23029 17.8401 9.30406 -7.39903 -140.146 6.14353
lowerback 13.2469 3.5862 1.02123
upperback 0.0412381 4.82367 -0.52957
thorax -7.24774 2.27668 -2.05557
lowerneck 2.36139 21.0377 11.6987
upperneck -0.0728775 28.369 -6.59553
head 2.306 14.201 -2.915
rclavicle 3.07122e-014 -3.18055e-014
rhumerus -39.6887 11.4216 -79.0696
rradius 66.9228
rwrist 1.11663
rhand -22.6268 63.5114
rfingers 7.12502
rthumb 3.8035 33.5656
lclavicle 3.07122e-014 -3.18055e-014
lhumerus -27.382 -4.92984 75.8576
lradius 29.1697
lwrist 8.63959
lhand 179.786 65.335
lfingers 7.12502
lthumb -154.614 -682.995
rfemur -5.61713 -5.56941 16.0749
rtibia 47.618
rfoot -28.2699 -9.93184
rtoes 5.76094
lfemur -6.7137 -6.42204 -15.9123
ltibia 27.6725
lfoot -11.0612 7.50292
ltoes -18.4682
569
root 1.18908 17.8465 9.30979 -7.69614 -139.711 6.6942
lowerback 13.0991 3.55112 0.94882
upperback 0.0567158 4.78112 -0.337429
thorax -7.17252 2.26449 -1.79358
lowerneck 2.36352 21.011 11.8859
upperneck -0.0405644 28.341 -6.69434
head 2.36059 14.1874 -2.96119
rclavicle 3.3197e-014 -1.74931e-014
rhumerus -39.8554 11.39 -79.3768
rradius 65.9857
rwrist 1.34542
rhand -21.8169 63.7311
rfingers 7.12502
rthumb 4.58553 33.8007
lclavicle 3.3197e-014 -1.74931e-014
lhumerus -27.3297 -5.61344 76.3993
lradius 29.9094
lwrist 9.0917
lhand 181.519 66.0215
lfingers 7.12502
lthumb -152.955 -682.062
rfemur -5.92629 -5.65521 16.5002
rtibia 48.0632
rfoot -27.1152 -11.744
rtoes 2.33821
lfemur -6.83722 -6.76361 -15.6383
ltibia 27.7385
lfoot -11.2486 7.2571
ltoes -17.541
570
root 1.14961 17.8516 9.32493 -7.72441 -139.029 6.9219
lowerback 13.0261 3.50952 1.02994
upperback -0.00193287 4.74377 -0.309239
thorax -7.19125 2.24499 -1.79976
lowerneck 2.37797 20.8651 11.7918
upperneck -0.050556 28.1439 -6.64731
head 2.31496 14.0898 -2.96171
rclavicle -5.13858e-014 -3.10104e-014
rhumerus -40.1681 11.7736 -79.7292
rradius 65.2646
rwrist 1.57292
rhand -21.6741 63.0345
rfingers 7.12502
rthumb 4.72345 33.1071
lclavicle -5.13858e-014 -3.10104e-014
lhumerus -27.2347 -6.69117 77.0225
lradius 30.5985
lwrist 9.67212
lhand 181.357 65.2705
lfingers 7.12502
lthumb -153.11 -682.837
rfemur -6.27543 -5.72949 16.5754
rtibia 48.4738
rfoot -26.2619 -11.7928
rtoes 2.36961
lfemur -7.14674 -7.28228 -15.6932
ltibia 27.8561
lfoot -11.2825 7.11414
ltoes -17.0288
571
root 1.12518 17.8487 9.34067 -7.86406 -138.312 7.26391
lowerback 13.3655 3.39101 1.23472
upperback -0.178158 4.61895 -0.411864
thorax -7.55034 2.16786 -2.03091
lowerneck 2.35107 20.7751 12.0411
upperneck 0.0434579 28.0204 -6.48614
head 2.35066 14.0275 -2.94513
rclavicle -8.67198e-014 -9.54166e-015
rhumerus -40.4003 12.0211 -80.4795
rradius 64.2236
rwrist 2.0403
rhand -21.6669 63.0699
rfingers 7.12502
rthumb 4.73042 33.1427
lclavicle -8.67198e-014 -9.54166e-015
lhumerus -27.0901 -7.60386 77.2961
lradius 31.1616
lwrist 10.1272
lhand 180.902 64.9598
lfingers 7.12502
lthumb -153.546 -683.214
rfemur -6.60577 -5.82641 16.7905
rtibia 48.7408
rfoot -25.13 -10.8048
rtoes -0.93269
lfemur -7.53307 -7.63917 -15.5841
ltibia 28.0783
lfoot -11.2491 6.80061
ltoes -17.1616
572
root 1.10792 17.8517 9.3415 -8.0562 -137.541 7.55059
lowerback 13.5261 3.29097 1.07204
upperback -0.239581 4.46476 -0.399596
thorax -7.72627 2.09581 -1.91149
lowerneck 2.41024 20.7149 12.2396
upperneck 0.0679201 27.9499 -6.50019
head 2.37578 13.9936 -2.98176
rclavicle -3.60794e-014 -1.11319e-014
rhumerus -40.4777 12.5783 -81.1742
rradius 63.3306
rwrist 2.0293
rhand -21.2762 63.0935
rfingers 7.12502
rthumb 5.10769 33.1751
lclavicle -3.60794e-014 -1.11319e-014
lhumerus -26.7176 -8.2394 77.6168
lradius 31.5158
lwrist 10.3745
lhand 180.43 65.0947
lfingers 7.12502
lthumb -153.998 -683.146
rfemur -6.90794 -5.75223 17.0937
rtibia 48.938
rfoot -23.8027 -9.75849
rtoes -6.87234
lfemur -7.76622 -8.24923 -15.489
ltibia 28.2805
lfoot -11.4346 6.36974
ltoes -15.2805
573
root 1.08408 17.8463 9.33545 -8.39973 -137.059 7.99172
lowerback 13.5657 3.24999 1.23179
upperback -0.185483 4.44186 -0.29961
thorax -7.68714 2.08077 -1.89061
lowerneck 2.11126 20.746 11.8497
upperneck 0.171781 27.948 -6.2871
head 2.36454 13.9881 -2.84068
rclavicle -1.07543e-013 1.11319e-014
rhumerus -40.3399 13.4698 -81.6934
rradius 62.4869
rwrist 2.23056
rhand -21.1414 63.0899
rfingers 7.12502
rthumb 5.23785 33.1746
lclavicle -1.07543e-013 1.11319e-014
lhumerus -26.4227 -9.07486 78.0796
lradius 32.1357
lwrist 11.0376
lhand 179.295 64.9733
lfingers 7.12502
lthumb -155.085 -683.423
rfemur -7.1527 -5.22686 17.606
rtibia 48.9743
rfoot -23.0496 -7.36297
rtoes -8.1357
lfemur -7.91802 -8.36205 -15.2272
ltibia 28.5645
lfoot -11.5308 5.93205
ltoes -14.7677
574
root 1.06977 17.8404 9.33176 -8.24552 -136.402 7.86493
lowerback 13.6603 3.23635 1.16485
upperback -0.218506 4.40008 -0.477107
thorax -7.7682 2.05754 -2.04079
lowerneck 2.02534 20.6529 11.8458
upperneck 0.0679979 27.813 -6.32994
head 2.33825 13.9182 -2.86222
rclavicle 3.78188e-014 -7.95139e-016
rhumerus -40.2538 14.3414 -82.4942
rradius 61.7287
rwrist 2.73542
rhand -21.6495 62.3819
rfingers 7.12502
rthumb 4.74719 32.4551
lclavicle 3.78188e-014 -7.95139e-016
lhumerus -26.0255 -10.4537 78.4613
lradius 32.7019
lwrist 11.5574
lhand 179.124 65.2787
lfingers 7.12502
lthumb -155.249 -683.14
rfemur -7.55862 -4.9591 17.6617
rtibia 48.9628
rfoot -22.5276 -4.94701
rtoes -10.6302
lfemur -8.25692 -8.4585 -15.4024
ltibia 28.8175
lfoot -11.4465 5.52463
ltoes -16.0197
575
root 1.05451 17.83 9.32544 -8.50468 -135.922 8.16659
lowerback 13.7182 3.15127 1.09788
upperback -0.15402 4.28833 -0.303533
thorax -7.75425 2.00912 -1.7986
lowerneck 1.82846 20.704 11.4874
upperneck 0.0946789 27.8565 -6.29691
head 2.32391 13.9372 -2.78719
rclavicle 7.64327e-014 1.98785e-014
rhumerus -39.9202 15.6901 -83.08
rradius 60.9886
rwrist 3.40058
rhand -21.936 61.9579
rfingers 7.12502
rthumb 4.47056 32.0251
lclavicle 7.64327e-014 1.98785e-014
lhumerus -25.8281 -11.3116 78.9548
lradius 33.4225
lwrist 12.3251
lhand 179.879 65.312
lfingers 7.12502
lthumb -154.525 -683.005
rfemur -7.89501 -4.7543 18.0959
rtibia 48.7941
rfoot -21.9453 -3.68792
rtoes -16.3347
lfemur -8.36744 -8.8082 -15.2586
ltibia 29.0415
lfoot -11.5997 5.30756
ltoes -16.1836
576
root 1.03959 17.8203 9.31709 -8.65906 -135.464 8.38269
lowerback 13.5922 3.09162 0.976631
upperback -0.0477926 4.19971 -0.12149
thorax -7.59477 1.97697 -1.50838
lowerneck 1.62007 20.751 11.2351
upperneck 0.155793 27.897 -6.26965
head 2.33997 13.9544 -2.72128
rclavicle 3.80176e-014 3.18055e-015
rhumerus -39.8538 16.9801 -83.4834
rradius 60.8982
rwrist 3.76281
rhand -21.3691 62.1787
rfingers 7.12502
rthumb 5.01795 32.2582
lclavicle 3.80176e-014 3.18055e-015
lhumerus -25.597 -12.2535 79.5099
lradius 34.1275
lwrist 13.0507
lhand 179.141 64.9339
lfingers 7.12502
lthumb -155.233 -683.482
rfemur -8.22547 -4.24229 18.5584
rtibia 48.4952
rfoot -21.9032 -3.16885
rtoes -22.9684
lfemur -8.53739 -9.06033 -15.179
ltibia 29.2981
lfoot -11.6252 5.24301
ltoes -17.6861
577
root 1.02789 17.8214 9.29843 -8.6401 -134.93 8.31319
lowerback 13.4225 3.08537 0.576014
upperback 0.00348008 4.13547 -0.00877422
thorax -7.48314 1.96509 -1.14051
lowerneck 1.6418 20.637 11.1286
upperneck 0.175368 27.7483 -6.30817
head 2.32168 13.8814 -2.73707
rclavicle 5.91384e-015 1.35174e-014
rhumerus -39.8233 18.2008 -84.0293
rradius 60.6507
rwrist 4.02853
rhand -21.04 62.5285
rfingers 7.12502
rthumb 5.33574 32.6157
lclavicle 5.91384e-015 1.35174e-014
lhumerus -25.2622 -12.9662 80.1013
lradius 34.6371
lwrist 13.5526
lhand 179.026 64.8508
lfingers 7.12502
lthumb -155.343 -683.581
rfemur -8.422 -2.65306 19.1235
rtibia 48.0485
rfoot -22.7951 -3.68756
rtoes -27.7544
lfemur -8.66566 -9.17803 -15.2873
ltibia 29.52
lfoot -11.7172 4.87104
ltoes -17.929
